{
  "asset": {
    "version": "2.0",
    "generator": "SneakerLab generic low-poly demo model"
  },
  "scene": 0,
  "scenes": [{ "nodes": [0, 1, 2, 3] }],
  "nodes": [
    { "mesh": 0, "name": "Sole", "scale": [1.6, 0.22, 0.8], "translation": [0, -0.38, 0] },
    { "mesh": 1, "name": "Upper", "scale": [1.15, 0.5, 0.62], "translation": [-0.1, 0.05, 0] },
    { "mesh": 1, "name": "Toe", "scale": [0.65, 0.3, 0.6], "translation": [1.22, -0.04, 0] },
    { "mesh": 1, "name": "Heel", "scale": [0.34, 0.72, 0.62], "translation": [-1.12, 0.22, 0] }
  ],
  "meshes": [
    {
      "name": "Sole mesh",
      "primitives": [{ "attributes": { "POSITION": 0 }, "indices": 1, "material": 0 }]
    },
    {
      "name": "Upper mesh",
      "primitives": [{ "attributes": { "POSITION": 0 }, "indices": 1, "material": 1 }]
    }
  ],
  "materials": [
    {
      "name": "Cloud sole",
      "pbrMetallicRoughness": {
        "baseColorFactor": [0.88, 0.9, 0.92, 1],
        "metallicFactor": 0.02,
        "roughnessFactor": 0.72
      }
    },
    {
      "name": "Pulse upper",
      "pbrMetallicRoughness": {
        "baseColorFactor": [0.08, 0.21, 0.36, 1],
        "metallicFactor": 0.08,
        "roughnessFactor": 0.48
      }
    }
  ],
  "buffers": [
    {
      "byteLength": 168,
      "uri": "data:application/octet-stream;base64,"
    }
  ],
  "bufferViews": [
    { "buffer": 0, "byteOffset": 0, "byteLength": 96, "target": 34962 },
    { "buffer": 0, "byteOffset": 96, "byteLength": 72, "target": 34963 }
  ],
  "accessors": [
    {
      "bufferView": 0,
      "componentType": 5126,
      "count": 8,
      "type": "VEC3",
      "min": [-1, -1, -1],
      "max": [1, 1, 1]
    },
    { "bufferView": 1, "componentType": 5123, "count": 36, "type": "SCALAR" }
  ]
}
